<?xml version="1.0" encoding="utf-8"?>
<!-- Generator: Adobe Illustrator 19.2.0, SVG Export Plug-In . SVG Version: 6.00 Build 0)  -->
<svg version="1.1" id="Layer_1" xmlns="http://www.w3.org/2000/svg" xmlns:xlink="http://www.w3.org/1999/xlink" x="0px" y="0px"
	 viewBox="0 0 265 265" style="enable-background:new 0 0 265 265;" xml:space="preserve">
<style type="text/css">
	.st0{fill:#323232;}
</style>
<g>
	<path class="st0" d="M263.5,132.7c0.2,72.3-59.2,131.9-132.8,131C60.1,262.8,0.6,205,1.5,130.8C2.4,59.4,61,0.4,135,1.7
		C206.3,2.9,263.7,61.3,263.5,132.7z M180.9,146.7c0.1,0.1,0.1,0.2,0.2,0.3c-2.1,2-4.1,4.1-6.2,6.1c-0.6,0.6-0.7,1.1-0.3,1.8
		c1.8,3.7,3.4,7.5,5.2,11.2c5.6,12.2,11.2,24.4,16.8,36.5c1.6,3.4,5.2,5.3,8.5,4.7c5.7-1.1,8.4-6.5,5.9-11.8
		c-7.8-16.9-15.6-33.9-23.4-50.8c-15.1-32.9-30.3-65.8-45.4-98.6c-1.7-3.6-4.4-5.4-8.4-5.3c-3.8,0.1-6.3,1.9-7.8,5.3
		c-15.1,32.8-30.2,65.6-45.3,98.4c-7.8,17-15.7,34-23.5,51.1c-0.7,1.5-1,3.3-0.9,4.9c0.3,3.2,2.2,5.4,5.2,6.5
		c3.1,1.1,5.9,0.3,8.4-1.8c22.2-19.2,44.4-38.4,66.7-57.6c0.6-0.5,1.5-0.8,2.2-0.8c13.5,0,27.1,0,40.6,0
		C180,146.7,180.5,146.7,180.9,146.7z"/>
	<path class="st0" d="M87.6,168c15.5-33.6,30.9-67.1,46.5-101c9.8,21.2,19.4,42.2,29.3,63.5c-0.7,0-1.3,0-1.8,0
		c-8.8,0-17.6,0-26.4,0c-2.4,0-4.5,0.8-6.3,2.4c-13.3,11.6-26.7,23.1-40,34.6c-0.3,0.3-0.6,0.5-1,0.7
		C87.8,168.2,87.7,168.1,87.6,168z"/>
</g>
</svg>
