<?xml version="1.0" encoding="utf-8"?>
<!-- Generator: Adobe Illustrator 19.2.0, SVG Export Plug-In . SVG Version: 6.00 Build 0)  -->
<svg version="1.1" id="Layer_1" xmlns="http://www.w3.org/2000/svg" xmlns:xlink="http://www.w3.org/1999/xlink" x="0px" y="0px"
	 viewBox="0 0 265 265" style="enable-background:new 0 0 265 265;" xml:space="preserve">
<style type="text/css">
	.st0{fill:#323232;}
</style>
<path class="st0" d="M135,1.7C61,0.4,2.4,59.4,1.5,130.8c-0.9,74.2,58.6,132,129.2,132.9c73.6,0.9,133-58.6,132.8-131
	C263.7,61.3,206.3,2.9,135,1.7z M62.1,85.7c18.9-18.9,49.6-18.9,68.6,0l-68.6,68.6C43.1,135.3,43.1,104.6,62.1,85.7z M132.4,224.6
	L63.9,156l68.6-68.6L201,156L132.4,224.6z M202.9,154.1l-68.6-68.6c18.9-18.9,49.6-18.9,68.6,0C221.9,104.5,221.9,135.2,202.9,154.1
	z"/>
</svg>
