<?xml version="1.0" encoding="utf-8"?>
<!-- Generator: Adobe Illustrator 19.2.0, SVG Export Plug-In . SVG Version: 6.00 Build 0)  -->
<svg version="1.1" id="Layer_1" xmlns="http://www.w3.org/2000/svg" xmlns:xlink="http://www.w3.org/1999/xlink" x="0px" y="0px"
	 viewBox="0 0 265 265" style="enable-background:new 0 0 265 265;" xml:space="preserve">
<style type="text/css">
	.st0{fill:#323232;}
</style>
<path class="st0" d="M135,1.7C61,0.4,2.4,59.4,1.5,130.8c-0.7,55.3,32.3,101.6,78.4,121.9c-0.2-7.1,0.1-14.2,0.9-21.3
	c0.7-6.3,1.6-12.7,2.9-18.9c1.5-7.4,3.5-14.8,5.4-22.1c2-7.8,4.1-15.6,6-23.4c1.2-4.7,2.3-9.4,3.4-14.2c0.1-0.4,0-0.9-0.2-1.3
	c-4.4-8.3-5.3-17.1-3.8-26.2c1.6-9.7,4.8-18.7,12.9-25.1c4.9-3.9,10.5-5,16.5-3.5c4.3,1.1,8.4,2.8,10.8,6.9c1.2,2,2.2,4.4,2.5,6.6
	c0.9,6.7-0.5,13.2-2.5,19.6c-2.1,6.9-4.3,13.7-6.1,20.6c-1.3,5-2.5,10.1-3.2,15.2c-1.5,11.5,3.9,19,15.9,20.7
	c14.5,2.1,24.5-4.9,32.3-16.2c5.1-7.3,8.3-15.4,10.4-23.9c3.2-12.6,3.9-25.4,1.7-38.2c-1.4-8.3-4.1-16.2-9.8-22.7
	c-6.8-7.8-15.3-13-25.2-16c-8.4-2.5-17-2.8-25.5-1.3c-11.9,2-22.7,6.8-32.2,14.5c-7.4,5.9-13.4,13.1-17.6,21.6
	c-4.4,8.8-6.1,18.1-6,28c0.1,8.5,3.6,15.5,7.8,22.3c4.3,7,2.9,13.9-0.8,20.6c-0.3,0.5-1.4,0.9-2,0.7c-12.8-3.3-22-10.6-26.4-23.3
	c-3.7-10.6-4.2-21.5-3-32.7c0.8-7.8,2.8-15.2,5.9-22.3c4.4-10.3,10.9-19,19.1-26.6c7.8-7.3,16.8-12.9,26.6-17
	c8.1-3.4,16.5-5.8,25.4-6.2c5.3-0.3,10.6-0.8,15.8-0.6c10.9,0.5,21.6,2.3,32,6.2c12.9,4.8,24.1,12,33,22.7
	c5.7,6.9,9.6,14.7,12.2,23.2c3,10.2,3.2,20.6,2.8,31c-0.5,12.7-3.4,24.9-8.5,36.6c-4.6,10.6-10.9,19.8-19.4,27.6
	c-6.7,6-14.4,10.5-23.1,12.8c-9.9,2.7-20.2,3.6-30,0c-4.9-1.8-9.3-5-13.9-7.7c-2.3-1.3-4.4-2.9-7-4.7c-0.6,2.9-1.1,5.4-1.6,7.9
	c-2.1,8.8-4.2,17.5-6.5,26.2c-2.5,9.3-6.4,18.1-11.7,26.3c-0.6,1-1.3,1.9-2,2.8c11.7,3.6,24.1,5.6,36.8,5.8
	c73.6,0.9,133-58.6,132.8-131C263.7,61.3,206.3,2.9,135,1.7z"/>
</svg>
